<?xml version="1.0" encoding="UTF-8"?>
<svg id="Layer_1" data-name="Layer 1" xmlns="http://www.w3.org/2000/svg" viewBox="0 0 933.99 434.63">
  <defs>
    <style>
      .cls-1 {
        stroke: #000;
        stroke-linecap: round;
        stroke-linejoin: round;
        stroke-width: 3px;
      }

      .cls-2 {
        stroke-width: 0px;
      }
    </style>
  </defs>
  <g>
    <path class="cls-1" d="m69.83,152.9c-.41.05-.79.14-1.13.3-.46.2-.83.52-1.11.99-.02.05-.05.09-.08.13-.01.13-.02.25-.02.36.12.06.22.11.33.17.9-.87,2.15-.81,3.44-.65-.45-.46-.93-.89-1.43-1.3Zm6.67,2.8s.01,0,.01.01c.01,0,.01,0,.02,0,3.13,2.03,6.5,3.12,10.28,2.63-3.44-.89-6.87-1.76-10.31-2.65ZM131.37,19.89s-.1.02-.15.02c-.05.01-.09.02-.13.04-.83.23-1.5.61-2.09,1.08-.36.88-.65,1.8-.93,2.72l3.33-2.93c.21-.34.41-.69.62-1.02-.22.02-.43.05-.65.09Zm3.68.74s-.03.03-.05.03c.03,0,.07,0,.1.01,0-.01-.03-.03-.05-.04Zm4.47-4.8c-.04.07-.08.13-.13.19.05.02.11.04.16.04-.01-.07-.02-.16-.03-.23ZM60.96,52.22c-.44.04-.83.14-1.16.3-.47.22-.81.57-1.04,1.05-.03.03-.03.06-.05.11-.01.05,0,.11,0,.18h0c.13.06.25.13.38.2.71-.36,1.43-.72,2.15-1.07-.05-.3-.16-.55-.28-.77Zm-42.15,116.64c-.23-.12-.45-.22-.65-.29-1.21-.44-2.01-.06-1.86,2.21.52-1.83,1.72-1.47,3.13-.44-.2-.49-.42-.99-.62-1.48Zm294.97-53.08c-.17.18-.32.39-.47.59.34.31.72.61,1.12.9-.21-.5-.43-1-.65-1.49Zm-8.19-17.7c-.04.13-.1.26-.14.38.12.05.27.08.42.11-.09-.16-.19-.33-.28-.49Zm229.56,171.01c1.94-.96,3.68-2.15,5.52-3.24-2.5.34-4.57,1.16-5.52,3.24Zm4.17-7.37c3.13.21,5.2-.82,6.01-3.33-1.77,1.38-3.47,2.85-6.01,3.33Zm18.44-5.13c1.77-1.12,3.66-2.1,5.34-3.3-2.41.41-4.52,1.16-5.34,3.3Zm11.7-12.77c3.02-.01,5.11-1,5.73-3.58-1.5,1.63-3.46,2.78-5.73,3.58Zm9.78-.51c1.01-2.05,3.62-2.66,5.33-4.07-2.76.47-5.04,1.37-5.33,4.07Zm24.09-17.15c-.27.06-.53.13-.79.21-.21.06-.41.13-.6.2-.45.17-.87.37-1.24.61-.16.1-.31.21-.46.33-.53.43-.96.98-1.23,1.69-.04.1-.08.2-.11.31.06-.05.12-.09.18-.13,1.59-1.25,3.53-2.17,5.16-3.4.01,0,.01-.01.01-.01-.31.06-.62.12-.92.19Z"/>
    <path class="cls-1" d="m588.5,230.88c-4.44,3.11-8.86,6.26-13.31,9.36-.62,2.58-2.71,3.57-5.73,3.58-8.05,4.85-16.09,9.72-24.13,14.57-.81,2.51-2.88,3.54-6.01,3.33-2.02.86-4.07,1.66-6.06,2.57-13.75,6.28-27.72,11.02-41.89,14.19-3.99.9-7.99,1.67-12.01,2.32-11.65,1.88-23.43,2.73-35.34,2.54-3.42-.05-6.85-.18-10.29-.4-23.86-1.55-48.2-7.2-72.97-16.94-34.21-13.44-53.85-38.21-65.97-66.72-3.12-7.36-1.67-16.69,5.54-21.79,23.2-16.41,24.96-37.81,16.22-62.19-.24-5.47-3.33-10.3-6.48-15.1-.21-1.28-.83-2.4-2.08-3.27-4.78-6.03-8.44-12.61-14.11-18.2-19.39-19.1-42.47-32.56-71.67-36.54-4.07-.53-6.56-2.18-7.81-5.58-1.71-4.68-3.94-9.23-6.92-13.58-14.8-21.54-40.83-27.68-63.28-14.93-1.65.94-3.6,1.55-5.41,2.3l-7.96-1.68c-.49.14-1,.12-1.52.04h-.01c-1.12.03-2.24.04-3.37.08.21.28.44.51.69.71.93.15,1.85.37,2.77.67,1.54.43,3.09.83,4.37,1.66,2.51.64,2.55,1.03,1.7,2.39,0,.24-.02.46-.09.69-.5,1.21-1.34,2.2-2.28,3.13-.35.57-.71,1.14-1.07,1.71-.21.33-.41.68-.62,1.02l-3.33,2.93c.28-.92.57-1.84.93-2.72-.92.7-1.63,1.6-2.39,2.45-5.9,7.67-8.94,16.49-10.2,25.62-1.42,10.49-5.41,18.74-17.87,22.23-.65.18-1.21.54-1.81.83-7.87,3.63-8.62,3.51-14.23-3.37-2.82-3.45-5.7-6.87-9.49-9.6-3.7-2.68-6.71-6.32-11.96-6.98-.03,0-.07,0-.09,0,.12.22.23.47.28.77-.72.35-1.44.71-2.15,1.07-.13-.07-.25-.14-.38-.19.02,2.7,2.68,4.11,4.68,5.79,5.85,4.87,10.77,10.27,15.19,16.08,3.23,4.24,3.04,7.1-.95,10.33-10,8.08-15.96,18.27-18.22,30.16-3.31,17.35,5.63,33.08,22.78,40.12-2.2.14-3.89-1.26-5.81-2.11-1.68-.73-3.43-1.27-5.3-1.41-.43-.01-.86,0-1.25.07.5.41.98.84,1.43,1.3-1.29-.16-2.54-.22-3.44.65-.11-.06-.21-.11-.33-.17.03,2.35,2.48,3.07,4.44,4.04,7.06,3.51,14.55,5.28,22.11,3.75,5.45-1.1,7.37-.18,7.98,4.93,2.36,19.92,11.98,37.88,27.52,54.07,3.83,3.98,3.55,4.78-1.83,5.96-2.02.43-4.12.63-6.22.82-27.34,2.46-49.91-7.71-70.13-23.75-12.79-10.15-21.81-22.6-31.16-34.8-.48-.32-.96-.61-1.39-.84.2.49.42.99.62,1.48-1.41-1.03-2.61-1.39-3.13.44,4.85,10.63,12.01,20.35,21.02,28.95,26.77,25.53,57.96,40.57,97.41,33.1,6-1.14,10.5-.46,15.93,2.76,45.24,26.84,97.73,21.92,127.44-11.86,4.54-5.15,8.12-10.92,12.19-16.47.69.58,1.16.82,1.36,1.17,1.09,1.84,2.11,3.73,3.15,5.59,16.51,29.57,42.38,50.83,78.75,62.67,19.87,6.46,39.94,10.12,60.18,11.28,3.43.19,6.85.31,10.29.36,6.39.1,12.8-.05,19.22-.43,4.72-.28,9.38-.7,13.96-1.27,4-.49,7.94-1.1,11.83-1.82,16.42-3.04,31.85-8.14,46.12-15.72.95-2.08,3.02-2.9,5.52-3.24,5.7-3.09,11.4-6.17,17.09-9.26.82-2.14,2.93-2.89,5.34-3.3,5.38-3.32,10.75-6.64,16.13-9.95.01,0,.01-.02.01-.03.29-2.7,2.57-3.6,5.33-4.07,1.87-1.27,3.74-2.54,5.61-3.81l-1.68-4.55ZM222.58,114.17c21.5,10.89,35.91,26.62,46.15,45.21,2.98,5.4,5.1,11.1,8.16,16.48,2.42,4.26.2,5.07-3.95,5.57-19.54,2.32-38.71-1.01-57.74-7-2.51-.79-4.96-1.84-7.52-2.47-3.97-.98-4.67-2.63-3.66-5.77,1.9-5.97,3.19-12.13,4.73-18.21.12.02.24.05.37.08,1.86-10.44,4.04-20.82,5.44-31.35.72-5.5,3.03-5.08,8.02-2.54Zm-19,30.35c-1.68,6.67-3.45,13.32-5.04,20.02-.67,2.86-1.83,3.13-5.24,1.6-24.23-10.85-45.78-24.69-64.67-41.7-3.31-2.99-3.38-4.77-.37-7.33,15.08-12.87,34.59-16.11,56.38-14.52,7.21.53,14.22,2.07,21.04,4.61,3.44,1.28,4.7,2.88,4.06,6.07-2.09,10.42-3.73,20.93-5.55,31.4-.21-.05-.41-.1-.61-.15ZM175.06,5.19c18.62,3.6,27.56,15.2,33.43,29.2-19.11-10.1-38.89-18.01-62.17-23,9.19-6.11,18.15-8.25,28.74-6.2Zm-40.06,15.47s.04-.02.05-.03c1.99-1.18,3.25-2.83,4.34-4.61.05-.06.09-.12.13-.19,2.75-1.46,5.68-2.28,9.26-1.43,21.94,5.3,42.2,13.85,61.05,26.29-33.85-2.5-61.68,8.21-89.5,22.29.82-16.43,6.76-29.67,14.67-42.32Zm-16.07,50.43c.08-1.67,1.21-2.89,2.91-3.67,18.59-8.49,36.54-18.03,58.41-21.09,9-1.26,18.17-1.44,27.44-1.3,3.67.07,5.32,1.37,5.68,4.24,2.1,17.24,1.67,34.22-1.86,50.86-.67,3.13-2.43,3.67-5.95,2.36-2.45-.9-5.09-1.34-7.66-1.99-28.78-6.52-53.83-2.96-74.35,13.27-1.07.83-1.99,2.4-4.04,1.31-1.57-.85-2.35-2.27-2.29-3.69.51-13.44,1.1-26.87,1.71-40.3Zm-20.07,7.88c4.87-1.88,9.2-4.61,15.18-7.7-.39,10.87-.73,20.51-1.07,30.17-1.3,1.17.06,3.64-2.56,4.15-5.06-5.37-9.36-11.13-13.74-16.88-3.37-4.44-3.82-7.43,2.19-9.74Zm-22.33,76.75s-.01,0-.02,0c0-.01-.01-.01-.01-.01,3.44.89,6.87,1.76,10.31,2.65-3.78.49-7.15-.6-10.28-2.63Zm14.14-3.73c-11.2-2.06-21.13-10.44-23.66-20.89-4.43-18.26,3-32.44,17.96-43.89,2-1.53,3.33-1.45,5.02.62,6.76,8.23,13.85,16.28,20.3,24.66,3.64,4.73,1.59,9.72.7,14.33-2.29,6.69-4.21,13.3-6.84,19.64-2.07,4.99-6.89,6.74-13.48,5.53Zm48.33,68.31c-19.81-18.18-29.83-38.84-29.77-62.22,0-4.82,2-9.19,2.87-12.86,1.94-6.52,2.89-12.35,6.26-17.47,2.12-3.22,3.72-3.42,7.12-.3,12.79,11.74,26.86,22.23,42.6,31.1,7.43,4.19,15.11,7.91,22.92,11.42,3.02,1.36,4.54,2.41,3.2,5.5-8.65,19.88-22.4,36.09-44.33,46.8-4.43,2.16-7.19,1.41-10.87-1.97Zm144.7-16.83c-12.05,23.2-31.6,38.9-62.63,42.76-25.01,3.1-48.46-2.76-70.9-17.4,25.13-11.35,40.08-29.02,49.21-50.63,1.62-3.89,4.38-2.85,7.7-1.71,17.56,6.17,35.43,10.43,54.02,10.2,5.45-.07,10.86-.25,16.07-1.24,2.4-.47,4.09-.24,5.1,2.04,2.4,5.37,4.38,10.28,1.43,15.98Zm7.15-29.07c-.4,1.91-1.99,3.17-4.12,3.42-2.65.32-2.77-1.98-3.5-3.31-5.61-10.32-10.64-20.8-17.82-30.59-10.91-14.88-25.14-26.86-43.48-35.11-4.27-1.91-5.39-3.8-4.93-7.57,2.26-17.93,4.93-35.86-.16-56.17,11.44,7.1,19.39,14.54,27.06,22.1,31.18,30.69,47.58,65.15,47.24,103.71-.01,1.18-.05,2.39-.29,3.52Zm-56.16-123.82c27.91,7.96,47.48,24.62,65.27,43.21,1.68,1.74,2.78,3.94,5.49,4.67.04-.12.1-.25.14-.38.09.16.19.33.28.49.44.78.87,1.56,1.3,2.34.23.41.46.81.7,1.24,1.98,4.54,3.95,9.09,5.91,13.63.22.49.44.99.65,1.49-.4-.29-.78-.59-1.12-.9-.04.06-.08.13-.13.18-1.1,4.55.93,9.12,1.42,13.66,1.11,10.2-.11,19.84-5.71,28.5-2.17,3.35-4.23,7.01-9.49,9.41-2.69-45.75-24.81-84.51-64.71-117.54Z"/>
    <path class="cls-1" d="m209.83,40.68c-33.85-2.49-61.68,8.21-89.5,22.3.83-16.43,6.76-29.68,14.67-42.32.03,0,.07,0,.1,0l.17.2c1.07,2.88-.99,4.89-2.13,7.13-4.74,9.36-9.74,18.64-10.26,29.33-.03.55-.2,1.13,1.21,2.17,23.49-12.89,49.44-21.48,80.75-20.2-16.33-9.97-33.09-16.65-50.69-21.94-4.98-1.5-9.8-.28-14.61-1.32,0-.07-.03-.15-.03-.23,2.75-1.46,5.68-2.28,9.26-1.42,21.94,5.3,42.2,13.85,61.06,26.28Z"/>
    <path class="cls-1" d="m6.98,104.88c-1.1.53-1.2,2.35-1.77,3.58-.38,1.89-.76,3.79-1.13,5.68-1.73-1.94-.57-3.77-.37-5.63,0-.51.05-1,.14-1.45.02-.12.05-.22.07-.34.1-.39.23-.76.41-1.1.38-.81.94-1.48,1.6-2.05,1.78-1.5,4.39-2.25,6.97-2.61,4.28-.61,9.09-1.16,13.68.77.32.45.58.9.8,1.38-7.26-1.37-14.24-1.23-20.41,1.76Z"/>
    <path class="cls-1" d="m19.42,170.33c-.43-.59-.86-1.18-1.27-1.77-8.42-12.12-11.18-25.3-13.51-38.52-.23-1.25-.48-2.5-.62-3.77h0c-.03-.28-.05-.56-.05-.83h0c0-.07-.02-.11-.02-.16-.15-1.79-.99-3.77,1.31-4.9.02,1.67.03,3.33.04,5,1.97,14.85,7.46,29.21,13.49,43.47h0c.19.49.41.99.61,1.47Z"/>
    <path class="cls-1" d="m67.82,154.85c-.11-.06-.21-.12-.33-.18-2.81-1.47-5.49-3.04-7.25-5.51-.75-.62-1.5-1.26-2.26-1.88-3.09-1.71-5.6-3.87-7.31-6.64-2.69-1.73-4.6-3.93-6.11-6.42-1.75-1.85-4.11-3.46-4.1-6.03-3.17-2.09-4.88-4.81-5.48-7.99-1.31-2.41-2.63-4.82-3.93-7.23-1.68-3.11-7.8-5.51-3.52-9.57.03.09.08.18.11.28.49,1.23.77,2.52,1.2,3.77.43,1.26,1,2.45,2.07,3.51.3.29.64.58,1.03.85,2.15,2.52,3.25,5.38,4.58,8.16.2.53.45,1.04.73,1.55.92,1.71,2.17,3.29,3.41,4.89.13.16.27.33.4.5.38.45.71.89,1.03,1.36.05.08.12.17.17.25,1.1,1.64,2.32,3.24,3.55,4.84.06.08.13.18.19.27.03.03.04.04.07.08,1.35,2.14,3.31,3.89,5.18,5.71.22.22.44.43.66.66,0,0,0,0,0,0,1.98,2.22,4.16,4.29,6.59,6.17.21.17.42.33.64.49.08.06.15.12.23.18.7.53,1.39,1.05,2.1,1.58.04.03.08.08.13.11,1.28,1.1,2.83,2.02,4.09,3.14h0c.8.71,1.48,1.49,1.9,2.45.1.21.17.43.24.67Z"/>
    <path class="cls-1" d="m57.69,20.12c1.66-.56,3.2-1.32,4.75-2.06-.8,1.81-1.93,3.14-4.75,2.06Z"/>
    <path class="cls-1" d="m63.95,17.91c2.19-1.93,5.51-2.13,8.21-3.27-1.58,2.86-4.9,3.06-8.21,3.27Z"/>
    <path class="cls-1" d="m106.51,9.07s-.03.04-.04.05c-.03,0-.08,0-.11.02l.15-.07Z"/>
    <path class="cls-1" d="m61.24,52.98c-.45-.19-.94-.33-1.44-.46-.99-.26-2-.45-2.97-.76-1.05-.31-2.06-.77-2.89-1.59-.07-.06-.13-.11-.21-.17-1.95-1.54-4.3-2.07-6.8-2.14h0c-.21,0-.41,0-.62,0-.33-.02-.65-.03-.97-.07-.05,0-.09,0-.14,0-.99-.08-2-.19-2.93-.03-.37.06-.72.16-1.08.32-.99.44-1.99.84-3.14.96-.41,0-.8.02-1.18.06-1.66.16-3.04.77-4.28,1.63-.24.17-.48.34-.71.51-.44.35-.9.63-1.38.93-.29.13-.57.3-.84.47-1.58,1.03-2.52,2.48-3.35,3.99-.16.29-.32.56-.46.85-.29.49-.65.93-1.04,1.36-.14.14-.29.27-.45.39-.32.28-.67.51-1.04.71-.32.18-.67.32-1.04.42-.02,0-.03,0-.05,0,0,.02-.02.02-.03,0h0c-.07.03-.13.04-.2.05-.19.06-.4.08-.61.11-.85-.04-1.59-.27-2.17-.73-.09-.08-.17-.15-.24-.23-.13-.12-.23-.25-.35-.4-1.29-3.15,2.17-4.75,2.69-7.3.24-.28.48-.56.7-.84.05-.05.09-.11.13-.17.92-1.2,1.68-2.47,2.48-3.72.35-.56.72-1.1,1.11-1.63.05-.06.11-.12.15-.18.05-.05.08-.1.13-.15,1.31-1.58,2.49-3.26,4-4.72.26-.25.54-.51.81-.74.1-.09.2-.19.31-.29.8-.72,1.6-1.45,2.33-2.22,0,0,.02-.02.02-.03.21-.21.42-.41.61-.62.82-.88,1.52-1.84,2.27-2.75.03-.03.06-.08.09-.12.35-.4.75-.74,1.2-1.05.19-.1.36-.2.54-.3,2.02-1.16,3.77-2.59,5.39-4.12.14-.13.29-.26.43-.4.09-.07.18-.14.28-.21.95-.77,2.02-1.4,3.07-2.06,0,0,0,0,.03,0,.37-.17.77-.3,1.2-.39.12-.04.25-.07.38-.09.04-.03.1-.04.15-.06h0c1.7-.68,3.39-1.37,4.84-2.39-.71,2.22-2.39,3.28-5.22,2.99-.24,1.64-1.37,2.61-3.27,3.01-2.43,1.86-3.7,4.93-7.72,5.16.31,2.02-1.54,2.89-2.88,4.03-1.06,1.01-2.15,2.01-3.21,3.02-.04.04-.08.08-.12.12-1.06,1.84-2.17,3.65-4.28,4.79-.57,2.63-2.74,4.3-4.83,6.01-1.09,2.58-2.19,5.16-3.28,7.74.85.24,1.71.47,2.56.7.78-.73,1.56-1.47,2.34-2.2.14-.37.3-.74.45-1.12.49-3.08,2.36-5.21,5.9-6.17l-.08-.2c2.22-1.6,3.63-5.09,7.98-1.9.61-.47,1.21-.95,1.81-1.43,1.26-1.21,2.85-1.39,4.72-.72.3-.18.59-.15.87.09h.03c3.39-.28,6.47.55,9.29,2.43,1.16,2.04,4.76,1.29,5.96,3.29.12.22.23.47.29.77Z"/>
    <path class="cls-1" d="m135.45,14.27c.02.24-.02.46-.08.69-.51,1.2-1.35,2.2-2.28,3.13-.54.54-1.11,1.06-1.69,1.58-.11.08-.2.18-.3.28-1.22,1.13-2.37,2.31-3.02,3.8.28-.92.57-1.84.93-2.72h0c1.07-2.68,2.7-5.03,6.13-6.29-1.22-2.11-3.75-2.21-5.84-2.95-4.19-.68-8.37-1.36-12.55-2.03-.02,0-.03,0-.05,0-3.34,1.37-6.75,1.22-10.19-.53-.19,1.45-1.44,1.47-2.9,1.2-2.57.61-5.21.79-7.97.26-1.04.14-2.06.27-3.1.4-2.74,1.2-5.83,1.45-8.96,1.6-1.98,1.41-4.36,1.17-6.81.56h0c1.64-.67,3.6-.66,5.33-1.1.29-.08.55-.16.82-.25.03-.02.06-.03.08-.03,2.74-.7,5.58-1.1,8.35-1.73.19-.03.38-.08.57-.13.03,0,.04,0,.07,0,1.03-.29,2.09-.49,3.18-.58.17-.03.33-.04.49-.05.08,0,.17-.02.25-.03,2.07-.18,4.21.27,6.29.11.2,0,.4-.03.6-.07.12,0,.24-.03.35-.05,1.09-.08,2.35.77,3.28-.14,0,0,.03-.03.04-.05h.04c2.22-.33,4.51-.26,6.77-.24,1.16.02,2.32.02,3.47-.06.19,0,.38-.03.58-.04h.06c2.39.24,4.79.24,7.19.49t.02,0c.35.03.68.08,1.02.12.35.04.67.09,1,.15.93.15,1.85.37,2.77.67,1.54.43,3.09.83,4.37,1.66.53.35,1,.77,1.42,1.29.19.37.28.74.27,1.1Z"/>
    <path class="cls-1" d="m19.42,170.33c-1.41-1.03-2.61-1.38-3.13.45-7.47-13.6-11.95-27.63-13.28-42.12-.05-1.27-.68-2.85.94-3.21h0c.34-.09.78-.12,1.34-.07,1.97,14.85,7.46,29.21,13.49,43.47h0c.19.49.41.99.61,1.47Z"/>
    <path class="cls-1" d="m37.54,33.74h0s.19-.11.19-.11c-.06.04-.12.07-.18.11Z"/>
    <path class="cls-1" d="m49.1,24.97h0c0,.08-.02.14-.06.21-.11.19-.22.31-.33.36h0s-.05.03-.08.02c0,0-.01,0-.01,0-1.11.97-2.69,1.47-3.86,2.37h0s0,0,0,0l-.28.24c-.17.16-.32.32-.47.5-2.01,1.74-4.04,3.45-6.3,4.96h0c-.05.04-.1.07-.15.11-1.32.81-1.96,2.13-3.07,3.1-.04.04-.08.07-.13.12-.18.17-.37.35-.57.52-.75.7-1.53,1.38-2.28,2.07-.17.15-.33.31-.5.46-.01,0-.01.01-.03.02-1.64,1.6-2.7,3.57-4.34,5.18-.08.09-.16.18-.26.26-.02.02-.04.05-.07.07-.53.59-1.02,1.22-1.7,1.59-.53.3-1.18.44-2.07.28,1.04-.72,2.09-1.43,3.14-2.15.88-2.44,2.99-4.13,4.9-5.94.7-1.35,1.45-2.66,3.23-3.22.63-1.01,1.32-1.94,2.55-2.3.03-.04.06-.08.09-.12.36-.4.75-.74,1.2-1.05.18-.1.36-.2.53-.31,1.14-1.9,3.11-3.14,5.4-4.12.14-.13.29-.27.43-.4.09-.07.18-.15.28-.22.68-1.1,1.65-1.86,3.06-2.06.01,0,.01-.01.02-.01.37-.17.78-.3,1.2-.39,0-.28.01-.55,0-.83.34.24.52.47.52.68Z"/>
    <path class="cls-1" d="m930.73,342.16c-3.86,22.4-11.95,43.21-28.67,60.47-19.45,20.09-45.31,30.72-77.71,30.5-40.45-.27-78.85-9.37-113.87-29.95-42.36-24.91-61.39-58.9-58.13-99.05,3.17-39.15,23.69-70.95,61.44-92.22,34.19-19.27,72.35-17.66,111.3.09,48.48,22.09,67.64,57.48,70.04,99.72,1.34,23.67-4.73,45.26-21.04,63.83-33.06,37.64-103.33,32.65-141.73,2.12-46.81-37.22-41.76-96.11-7.17-123.61,31.86-25.34,81.02-19.78,110.16,12.83,20.58,23.03,26.75,47.6,13.99,72.58-9.59,18.78-30.46,27.37-53.61,23.14-21.81-3.99-41.5-22.04-45.34-41.65-2.22-11.31-1.02-21.89,6.67-30.93,7.53-8.87,22.17-11.17,33.98-5.49,12.22,5.89,18.54,17.92,14.76,28.11-2.78,7.51-11.12,10.61-19.37,7.05-4-1.73-7.47-4.37-5.37-8.18,2.03-3.67,6.33-2.28,9.94-.74,6.2,2.63,8,1.88,8.46-3.87.57-7.27-4.74-14.85-12.69-18.11-7.86-3.22-16.47-1.78-22.36,3.71-8.12,7.56-8.55,17.2-7.03,27.15,2.59,17.01,20.94,34.13,39.46,37.26,21.08,3.56,39.39-5.21,47.04-22.55,13.43-30.41-6.12-69.42-42.26-84.36-25.76-10.65-55.36-6.85-73.52,10.46-29.87,28.48-31.49,73.13,2.37,107.33,28.27,28.55,97.01,43.21,133.69,7.36,22.68-22.17,26.24-49.2,22-78.29-3.06-20.98-12.21-40.49-29.73-57.41-34.8-33.62-103.87-52.44-152.74-13.13-28.61,23.01-45.12,51.75-44.3,87.26.91,39.02,22.89,69.16,64.29,90.04,28.77,14.51,59.62,22.17,91.95,23.53,43.84,1.84,74.82-14.03,92.99-45,36.57-62.32,13.26-131.5-58.04-174.26-62.33-37.38-124.82-37.64-187.03-14.56-6.26,2.33-12.14,5.25-18.2,7.9h-.03c-6.55,3.58-12.28,8.12-19.64,10.75-7.14,4.66-14.28,9.33-21.43,13.98-.31.06-.62.12-.92.19-.27.06-.54.13-.79.21-.21.06-.4.13-.6.2-.45.17-.87.37-1.24.61-.16.1-.32.21-.46.33-.53.43-.96.98-1.23,1.69-.04.1-.08.2-.11.31-2.91,1.98-5.81,3.95-8.72,5.92l-1.68-4.55c2.94-2.05,5.89-4.09,8.88-6.09,4.29-2.87,8.66-5.67,13.17-8.33h.02c2.38-.8,4.53-1.82,5.78-3.79,3.39-2.35,6.48-5.03,10.58-6.63,4.7-3.42,9.9-6.25,15.64-8.44h.01c94.77-51.5,209.66-20.12,265.48,54.48,21.37,28.55,28.04,58.81,22.67,90.08Z"/>
    <path class="cls-1" d="m15.63,65.52c-1.18,7.91-4.36,15.3-5.95,23.1-.02.04-.03.1-.05.15-.15.46-.29.92-.43,1.39-1.28,4.42-1.89,9.02-3.27,13.41-.32,1-.67,2-1.09,2.99-.14.12-.3.22-.45.29h0c-.19.1-.36.16-.54.2-.77.14-1.5-.24-2.22-.9.29-1.84.59-3.67.88-5.51-.14-2.83,1.02-5.37,1.62-8.05h0c.03-.13.05-.25.08-.38.02-.1.04-.19.06-.29,2-6.85,2.97-13.97,5.69-20.62,0-.02,0-.03.02-.05,1.49-2.31-.12-6.4,4.87-6.71.06,0,.13,0,.19,0,.2.33.4.66.6.99Z"/>
    <path class="cls-1" d="m314.42,117.26c-.4-.29-.78-.59-1.12-.89-4.78-4.12-5.44-9.33-6.4-14.48-.03-.13-.04-.27-.08-.41.11-.19.23-.39.35-.57.23.41.45.82.69,1.24,1.98,4.54,3.95,9.09,5.91,13.63.22.5.44.99.65,1.49Z"/>
    <path class="cls-1" d="m135.45,14.27c.02.24-.02.46-.08.69-.51,1.2-1.35,2.2-2.28,3.13-.35.57-.71,1.15-1.07,1.72-.21.33-.41.67-.62,1.01-.04-.33-.04-.64-.03-.93,0-.08.02-.14.03-.22.26-2.13,1.96-3.55,3.74-4.92h0s0-.02,0-.03c-.06-3.22-3.06-2.61-5.17-3.14-.08-.03-.16-.04-.24-.08-.27-.08-.52-.19-.75-.34-1.24-.5-3.12-.39-3.37-1.77-.02-.13-.03-.28-.02-.43,0-.06,0-.12,0-.18,0-.08.03-.15.03-.23,1.17-.54,2.42,0,3.66.19-1.12.03-2.24.04-3.37.08.21.29.44.51.69.72.93.15,1.85.37,2.77.67,1.54.43,3.09.83,4.37,1.66,2.51.64,2.54,1.04,1.69,2.39Z"/>
    <path class="cls-1" d="m135.1,20.67s-.08,0-.1,0c.02,0,.03-.03.05-.03,1.99-1.18,3.24-2.83,4.34-4.61.05-.06.08-.13.13-.19,0,.08.03.16.03.23.45,2.86-.35,4.87-4.45,4.62Z"/>
    <path class="cls-1" d="m129.29,8.76c-1.12.03-2.24.04-3.37.08-.1.05-.21.09-.33.13-.33.13-.67.23-1,.31t-.02,0c-2.35.56-4.89.05-7.35,0-.08,0-.13,0-.21,0-.24,0-.49,0-.73,0-1.07.03-2.11-.04-3-.4-.75-.28-1.41-.75-1.92-1.53,1.8.5,3.6.99,5.39,1.47.19,0,.38-.03.58-.04h.02c2.64-.88,5.47-.28,8.26,0,0-.08.03-.15.03-.23,1.17-.54,2.42,0,3.66.19Z"/>
    <path class="cls-1" d="m5.31,125.38c-.62.2-1.01.51-1.29.89h0c-.51.71-.61,1.63-1,2.39-1.06-2.9-1.82-5.79-1.08-8.72.32-1.25-1.86-3.67,1.3-3.48,2.78.17.36,2.86,2.03,3.93.01,1.66.03,3.33.04,4.99Z"/>
    <path class="cls-1" d="m9.98,71.25c-1.77,7.05-3.53,14.1-5.3,21.15-.54.35-.92.25-1.09-.37,1.19-7.2,2.59-14.34,6.39-20.78Z"/>
    <path class="cls-1" d="m92.54,11.08c-2.74,1.19-5.84,1.45-8.96,1.6-.88.03-1.32-.18-1.48-.54-.13-.29-.07-.68.09-1.13,2.73-.66,5.11-2.27,8.36-1.51.61.04,1.06.22,1.38.51.31.27.5.65.62,1.09Z"/>
    <path class="cls-1" d="m117.12,9.56c-.18.15-.32.21-.43.18-3.34,1.38-6.74,1.22-10.2-.53-.03,0-.05-.02-.08-.04-.02-.01-.05-.02-.07-.03.02-.04.03-.08.06-.11.9-1.8,3.46-.86,4.95-1.67,1.8.5,3.59.99,5.39,1.48.08.03.17.05.25.07.12.14.2.27.22.38.02.12-.01.21-.1.29Z"/>
    <path class="cls-1" d="m19.19,59.79c.04.83-.65.9-1.58.7-.02,0-.05,0-.08-.01h-.02c-.79-.88-.34-1.72-.17-2.57h0c.1-.43.11-.84-.12-1.27.96-2.38,1.96-4.75,4.24-6.46.28.2.5.42.66.66.17.26.27.55.29.86-1.09,2.58-2.19,5.16-3.28,7.75.03.13.05.24.05.34Z"/>
    <path class="cls-1" d="m27.24,45.71c-.57,2.63-2.73,4.3-4.82,6-.14-.23-.29-.46-.43-.68-.17-.28-.35-.56-.52-.84.36-.93.71-1.85,1.08-2.78,1.04-.72,2.09-1.43,3.14-2.15.11-.05.22-.08.32-.09.24-.05.44-.04.64.04.22.08.43.25.61.5Z"/>
    <path class="cls-1" d="m4.08,114.14c-4.93-2.09-.82-5.42-2.45-7.97.77.19,1.54.37,2.3.56l.44.11s0,.01,0,.01c0,0,.02,0,.03.02.66.42.54,1.07.81,1.59-.38,1.89-.76,3.79-1.13,5.68Z"/>
    <path class="cls-1" d="m14.88,64.44s.06,0,.09,0c.02.03.04.06.06.09l-.16-.1Z"/>
    <path class="cls-1" d="m14.97,64.44s-.02-.02-.02-.03c-2.14-3.37,1.2-5.26,2.28-7.77.04.42.07.84.12,1.26h0c.08.84.15,1.66.23,2.49.01.03.03.07.04.1.8,2.18,1.17,4.15-2.64,3.95Z"/>
    <path class="cls-1" d="m72.16,14.64c-1.58,2.86-4.9,3.06-8.21,3.27,1.04-3.71,4.42-3.8,8.21-3.27Z"/>
    <path class="cls-1" d="m103.6,10.41c-2.57.62-5.21.8-7.97.27-.34-.41-.5-.83-.47-1.28,0-.09.01-.18.04-.27,0-.02.02-.04.04-.06.03-.07.07-.14.11-.2.81-1.19,2.56-.49,3.8-.8.08-.03.17-.05.25-.08.43.14.86.29,1.3.42.06.04.12.08.18.12.57.35,1.33.5,1.91.84.39.23.7.53.81,1.05Z"/>
    <path class="cls-1" d="m83.57,12.67c-1.98,1.41-4.35,1.17-6.81.57h0c1.15-1.73,3-2.41,5.42-2.24.24.3.49.58.73.88.22.26.44.53.66.79Z"/>
    <path class="cls-1" d="m3.59,92.03c.37.1.74.22,1.1.37-.72,2.75-1.45,5.5-2.17,8.26-.78-3.06.14-5.84,1.07-8.62Z"/>
    <path class="cls-1" d="m62.43,18.06c-.8,1.81-1.93,3.14-4.75,2.06.79-1.82,2.58-2.21,4.75-2.06Z"/>
    <path class="cls-1" d="m604.25,225.97s0,.01-.01.01c-.98,1.92-2.48,3.28-5.12,3.51-.07.01-.15.02-.22.02.03-.11.07-.21.11-.31.27-.71.7-1.26,1.23-1.69.15-.12.3-.23.46-.33.37-.24.79-.44,1.24-.61.19-.07.39-.14.6-.2.26-.08.52-.15.79-.21.3-.07.61-.13.92-.19Z"/>
    <path class="cls-1" d="m53.93,22.58c-.7,2.22-2.39,3.28-5.22,3-.03,0-.06,0-.09,0-.02,0-.03,0-.05,0,0-.03,0-.06,0-.09,0-.12,0-.23,0-.36,0-.28.01-.55,0-.83,1.35-1.35,2.94-2.27,5.35-1.71Z"/>
    <path class="cls-1" d="m584.56,239.24c-.8,2.25-3.14,3.1-5.33,4.09v-.03c.29-2.7,2.58-3.6,5.33-4.07Z"/>
    <path class="cls-1" d="m575.19,240.23h0c-.62,2.59-2.71,3.57-5.74,3.58,1.91-1.2,3.82-2.38,5.74-3.58Z"/>
    <path class="cls-1" d="m563.1,253.29c-.93,2.01-2.94,2.86-5.34,3.29.82-2.14,2.92-2.89,5.34-3.29Z"/>
    <path class="cls-1" d="m307.86,102.14c-.37-.07-.69-.15-.96-.25-1.95-.66-1.92-1.97-1.46-3.43.04-.13.1-.25.14-.39.09.16.19.33.28.5.44.77.87,1.56,1.31,2.33.23.41.45.82.69,1.24Z"/>
    <path class="cls-1" d="m616.35,212.67c-1.25,1.97-3.4,2.99-5.78,3.79,1.66-1.54,3.35-3.04,5.78-3.79Z"/>
    <path class="cls-1" d="m95.63,10.68c-1.03.14-2.06.27-3.1.4-.4-.31-.8-.63-1.19-.95-.27-.21-.54-.42-.8-.64.34-.25.68-.51,1.02-.75h0s0,0,0,0c1.28-.89,2.52-.44,3.78.14.2.09.39.18.59.26-.02.07-.02.12-.04.19-.08.46-.19.91-.27,1.36Z"/>
    <path class="cls-1" d="m545.32,258.38c-.81,2.51-2.88,3.54-6.01,3.34,2-1.11,4-2.22,6.01-3.34Z"/>
    <path class="cls-1" d="m95.94,9.13c-1.46-.13-2.91-.27-4.37-.4,2.24-1.77,4.97-1.55,7.84-.75-1.16.38-2.31.77-3.47,1.15Z"/>
    <path class="cls-1" d="m103.6,10.41c-.47-.33-.94-.65-1.41-.98-.43-.3-.88-.6-1.31-.91-.06-.04-.12-.08-.18-.12,1.93-.42,3.85-.35,5.71.62.03.02.07.03.09.05,0,.02,0,.02,0,.04,0,.03-.01.06-.01.09-.19,1.46-1.43,1.47-2.9,1.2Z"/>
    <path class="cls-1" d="m540.67,265.85c-.88,2.16-3.34,2.54-5.53,3.23.95-2.08,3.02-2.9,5.53-3.23Z"/>
    <path class="cls-1" d="m40.45,128.11s.05.05.08.08c.02.02.03.05.04.07l-.11-.15Z"/>
    <path class="cls-1" d="m26.59,101.73c.32.45.58.9.79,1.38-7.25-1.36-14.23-1.23-20.41,1.77-1.1.53-1.2,2.35-1.76,3.57-.27-.53-.56-1.06-.82-1.58,0,0,0,0,0-.02h0s0,0,0-.02c-.03-.4-.04-.81-.03-1.21-.07-6.03,1.83-11.68,3.34-17.39.85-.07,1.47.16,1.96.55-.15.46-.29.92-.43,1.39-1.28,4.42-1.89,9.02-3.27,13.41,1.79-1.51,4.4-2.25,6.97-2.62,4.27-.61,9.08-1.15,13.68.77Z"/>
    <path class="cls-1" d="m58.7,53.86h0c-2.01-1.05-4.03-2.09-6.03-3.14-3.47-.98-6.94-1.98-10.42-2.97-.37.06-.72.16-1.08.32-.99.44-1.99.84-3.14.96-.41,0-.8.02-1.18.06-1.38.64-2.69,1.49-4.28,1.63-.24.17-.48.34-.71.51-.44.35-.9.63-1.38.93-.29.13-.57.3-.84.47-.55,1.73-1.12,3.44-3.35,3.99-.16.29-.32.56-.46.85-.29.49-.65.93-1.04,1.36-.14.14-.29.27-.45.39.65,4.27-2.24,7.88-2.42,12,.19,2.03-.12,3.94-1.19,5.69-.09.34-.19.66-.3.99,2.47,1.05,1.48,2.75,1.61,4.25.14,1.65.3,3.31.45,4.96,1.46,1.15,1.12,2.48.96,3.78,1.04,3.18,2.08,6.35,3.11,9.52-.56.08-1.14.15-1.71.23-1.61-3.25-2.54-6.62-3.02-10.08-.68-1.25-1.35-2.5-.61-3.79-.45-.09-.87-.27-1.24-.54v-.03s.04,0,.06,0c.42-.02.83.08,1.25.25.09.14.19.28.27.41.08.12.13.24.2.37h0c.48.98.65,1.97.75,2.99,0,.08.02.17.03.26.03.08.06.16.09.24.5,1.41,1.06,2.79,1.42,4.21-.29-1.32-.7-2.65-1.27-3.94-.03-.08-.03-.17-.05-.25-.03-.18-.06-.35-.09-.53-.17-.98-.29-1.96-.56-2.95-.02-.08-.04-.14-.07-.22,0-.03-.02-.05-.03-.07-.3-.67-.62-1.31-.88-1.98-.25-.61-.45-1.21-.57-1.84-.07-.26-.1-.53-.13-.81,0,0,0-.02,0-.03-.12-.9-.37-1.79-.61-2.67h0c-.2-.78-.41-1.56-.53-2.34-.09-.61-.09-1.2-.06-1.79.13-.96.33-1.9.54-2.85.2-.86.42-1.72.61-2.59.13-.56.24-1.13.39-1.68v-.02c.19-.77.38-1.52.59-2.27.14-.44.27-.88.39-1.32.27-.94.56-1.86.88-2.79h0c.02-.08.05-.13.06-.2.22-.63.44-1.26.66-1.88.24-.67.5-1.32.75-1.98.14-.37.3-.74.45-1.12,2.65-1.58,3.56-4.37,5.9-6.17l-.08-.2c2.53-.94,4.85-2.32,7.98-1.9.61-.47,1.21-.95,1.81-1.43,1.71-.08,3.39.08,5.05.37.28.05.56.11.83.17.31.05.62.13.94.19h0c1.92.44,3.82.99,5.73,1.52.35.22.71.42,1.07.62,1.04.58,2.13,1.11,3.1,1.76.74.51,1.42,1.09,1.93,1.81.13.15.24.31.33.48-.13-.07-.25-.13-.38-.19Z"/>
    <path class="cls-1" d="m71.26,154.2c-.87-.3-1.73-.64-2.56-1-1.04-.44-2.04-.93-3.01-1.47h0c-1.28-.72-2.5-1.52-3.64-2.43-.26-.2-.52-.39-.78-.57-.07-.05-.15-.11-.23-.16-.65-.47-1.31-.96-1.88-1.5-.03,0-.04-.03-.07-.06-.08-.05-.13-.11-.2-.17-2.5-2.09-4.95-4.23-7.08-6.59-.03-.03-.05-.08-.08-.1-.19-.25-.38-.49-.59-.72-1.71-1.92-4.1-3.41-5.28-5.64-.02-.03-.04-.06-.07-.08-.08-.1-.14-.2-.22-.29-1.42-1.89-3.28-3.5-4.99-5.2-.02,0-.03-.03-.05-.03,0-.03-.02-.05-.02-.08-1.2-2.91-3.61-5.32-5.53-7.92-1.31-2.41-2.63-4.82-3.93-7.23-.94-3.13-4.17-5.89-3.41-9.29.03-.17.08-.33.13-.5,1.06,2.59,2.65,5.1,3.13,7.78.3.29.64.58,1.03.85,2.15,2.52,3.25,5.38,4.58,8.16.2.53.45,1.04.73,1.55,1.9,1.3,3.22,2.86,3.41,4.89.13.16.27.33.4.5.38.45.71.89,1.03,1.36.05.08.12.17.17.25,2.31.91,3.07,3.13,4.47,4.79l5.93,6.4c2.92,1.84,4.97,4.3,7.04,6.74.83.64,1.68,1.26,2.5,1.9,2.71,1.34,5.38,2.7,7.63,4.55.5.41.98.84,1.43,1.31Z"/>
    <path class="cls-1" d="m86.81,158.34c-3.58-.25-7.04-1.08-10.29-2.63,0,0,0,0-.02,0,0,0,0,0,0,0,3.44.88,6.87,1.76,10.31,2.65Z"/>
    <path class="cls-1" d="m313.78,115.78c-1.96-4.54-3.93-9.09-5.91-13.63-.24-.43-.47-.83-.7-1.24-.43-.78-.86-1.56-1.3-2.34-.09-.16-.19-.33-.28-.49-.04.13-.1.26-.14.38-.47,1.46-.5,2.78,1.46,3.43.96,5.16,1.62,10.36,6.4,14.48.34.31.72.61,1.12.9-.21-.5-.43-1-.65-1.49Z"/>
    <path class="cls-1" d="m139.55,16.06c-.01-.07-.02-.16-.03-.23-.04.07-.08.13-.13.19-1.09,1.78-2.35,3.43-4.34,4.61-.01.01-.03.03-.05.03.03,0,.07,0,.1.01,4.11.25,4.9-1.75,4.45-4.61Z"/>
    <path class="cls-1" d="m61.24,52.98c-.72.35-1.44.72-2.16,1.07-.13-.07-.25-.13-.38-.19h0c-2.01-1.05-4.03-2.09-6.03-3.14-1.77-1.95-5.84-.64-7.35-2.94-.06-.09-.13-.19-.18-.29-.15-.3-.26-.67-.34-1.1.3-.18.59-.15.87.09h.03c3.23.27,6.39.9,9.29,2.43,1.16,2.04,4.76,1.29,5.96,3.29.12.22.23.47.29.77Z"/>
    <path class="cls-1" d="m71.26,154.2c-1.29-.16-2.54-.23-3.44.65-.11-.06-.21-.12-.33-.18-2.81-1.47-5.49-3.04-7.25-5.51.17-.35.45-.51.79-.59.14-.04.29-.07.43-.09.24-.04.51-.08.73-.13,2.71,1.34,5.38,2.7,7.63,4.55.5.41.98.84,1.43,1.31Z"/>
    <path class="cls-1" d="m135.2,14.69c-.7,1.13-1.41,2.26-2.11,3.39-.35.57-.71,1.15-1.07,1.72-.21.33-.41.67-.62,1.01l-3.33,2.93c.28-.92.57-1.84.93-2.72h0c1.07-2.68,2.7-5.03,6.13-6.29,0,0,0,0,0,0,0,0,.03,0,.03,0,0,0,0,0,0,0s0,0,.02,0Z"/>
    <path class="cls-1" d="m86.81,158.34c-3.78.49-7.15-.6-10.29-2.63,0,0,0,0-.02,0,0,0,0,0,0,0,3.44.88,6.87,1.76,10.31,2.65Z"/>
    <path class="cls-1" d="m59.69,146.45c-.09.18-.19.33-.33.46-.06.07-.13.12-.21.17-.29.19-.68.26-1.17.21-3.09-1.71-5.6-3.87-7.31-6.64-.04-.65.12-1.06.46-1.2.04-.02.07-.03.1-.03.33-.09.79,0,1.41.3,2.92,1.84,4.97,4.3,7.04,6.74Z"/>
    <path class="cls-1" d="m31.04,112.97c-1.68-3.11-7.8-5.5-3.52-9.57.08-.07.17-.15.25-.22,1.06,2.59,2.65,5.1,3.14,7.78.12.66.17,1.33.14,2.01Z"/>
    <path class="cls-1" d="m52.65,139.71c-.24.12-.49.23-.75.35-.06.03-.12.06-.18.09-.35.16-.7.33-1.05.49-2.69-1.72-4.6-3.93-6.11-6.41.25-.39.58-.66,1-.81.07-.03.15-.06.23-.07.27-.06.58-.08.92-.04l5.93,6.4Z"/>
    <path class="cls-1" d="m46.72,133.31c-.25.1-.49.21-.73.31-.07.03-.14.06-.21.09-.41.18-.81.34-1.21.52-1.76-1.85-4.11-3.47-4.11-6.04,0-.03,0-.05,0-.08.02,0,.03,0,.05,0,.03,0,.06,0,.08.01.63.06,1.18.19,1.65.38,2.31.91,3.07,3.13,4.48,4.79Z"/>
    <path class="cls-1" d="m40.57,128.23v.03s-.08-.04-.12-.07c-3.17-2.09-4.88-4.81-5.48-7.99.82.42,1.58.84,2.27,1.32,1.9,1.3,3.22,2.86,3.41,4.89.07.54.05,1.12-.06,1.72,0,.03,0,.07-.01.1Z"/>
    <path class="cls-1" d="m62.19,148.34c-.2.09-.4.17-.6.25-.11.06-.23.1-.33.14-.35.15-.68.29-1.02.43-.74-.62-1.5-1.25-2.25-1.87.3-.14.6-.29.9-.44.08-.04.17-.08.25-.12.18-.09.38-.18.56-.28.84.64,1.68,1.27,2.5,1.89Z"/>
    <path class="cls-1" d="m19.97,86.2v.03c-.66,2.23-1.04,4.57-2.05,6.65-.88,1.83-3.02,3.09-5.37,2.93-2.42-.15-2.02-2.44-2.59-3.85-.25-.61-.45-1.22-.75-1.8.13-.47.28-.93.43-1.39,1.79,1.42,1.71,5.01,5.02,4.02,3.08-.94,2.04-4.9,4.72-6.49.19-.06.4-.09.6-.09Z"/>
    <path class="cls-1" d="m19.19,59.8c.03.83-.66.89-1.58.7.8,2.18,1.17,4.15-2.64,3.95.03.03.04.06.07.09.2.33.4.66.6.99-1.18,7.91-4.36,15.3-5.95,23.1-.02.04-.03.1-.05.15-.15.46-.29.92-.43,1.39-.33-.71-.78-1.37-1.53-1.94,1.39-8.17,4.19-15.95,7.17-23.68,0-.04.03-.07.03-.11.03,0,.05-.02.08-.03,2.07-.67,1.88-2.53,2.58-3.93.02-.03.02-.06.04-.08.46-.29.91-.56,1.37-.83.07-.03.13-.08.19-.12.85.24,1.71.47,2.56.7.08.09.18.18.27.27-.19.06-.4.08-.61.11-.85-.04-1.59-.27-2.17-.73Z"/>
    <path class="cls-1" d="m22.63,63.32s0,0,0,.02c0,0,0,0,0,.02h0c-.13,1.13-.5,2.22-.83,3.31,0,0,0,.02,0,.03-.21.71-.41,1.42-.51,2.15-.28,1.23-.71,2.43-.63,3.73h0c0,.13.03.27.04.4h0c.3,1.34-.95,2.55.05,3.93-.09.34-.19.66-.3.99.57,1.35.4,2.7.55,4.06.03.28.06.55.12.82.03.12.07.24.1.36.03.64.08,1.29-.11,1.86-.14.47-.44.89-1.06,1.2-.02.02-.03.02-.06.03v-.03c.18-1.01.35-2.02.52-3.02-.71-1.21-.93-2.38-.72-3.52h0c-.2-.78-.41-1.56-.53-2.34-.09-.61-.09-1.2-.06-1.79.13-.96.33-1.9.54-2.85-.46-1.16-.37-2.29.23-3.39.72-2.91,1.46-5.81,2.19-8.73.02.03.04.06.07.08.06.04.12.1.18.16.03.03.06.06.08.08.09.31.14.61.18.92.07.51.07,1.02,0,1.52Z"/>
    <path class="cls-1" d="m21.92,71.22c-.28.14-.43.35-.57.6h0c-.2.41-.31.88-.68,1.17h0c-.16.15-.38.25-.69.29-.11-.2-.21-.39-.28-.59-.47-1.16-.37-2.29.22-3.39.56-1.02,1.02-2.08,1.36-3.16.14-.44.28-.88.39-1.33.33-1.34.51-2.73.51-4.15.01-.09.02-.19,0-.28,0-.05,0-.09,0-.15l-.52-.06c.78-.73,1.56-1.47,2.34-2.2.13.43.24.86.29,1.27.65,4.27-2.24,7.88-2.41,12Z"/>
    <path class="cls-1" d="m130.27,11.1c-.05.21-.15.37-.3.48-.16.13-.39.19-.67.2-4.19-.68-8.37-1.36-12.55-2.03-.02,0-.03,0-.05,0,.18-.14.29-.29.32-.47.03-.11.03-.24,0-.37.1-.04.22-.08.33-.12h.02c2.64-.88,5.47-.28,8.26,0,.11.02.22.03.32.04.21.29.44.51.69.72,1.03.79,2.43,1.03,3.66,1.55Z"/>
    <path class="cls-1" d="m30.39,50.66c-.32.62-.53,1.29-.74,1.98-.55,1.73-1.13,3.44-3.36,4-.51.13-1.1.2-1.79.2.49-3.08,2.36-5.21,5.9-6.17Z"/>
    <path class="cls-1" d="m52.67,50.72c-3.47-.98-6.94-1.98-10.42-2.98-.72-.21-1.44-.41-2.16-.62,1.25-1.22,2.85-1.39,4.72-.73.3.55.69.95,1.17,1.26.1.06.2.12.31.18,2.03,1.09,5.06.79,6.38,2.88Z"/>
    <path class="cls-1" d="m31.52,40.91c-1.06,1.84-2.18,3.65-4.28,4.8-.29-.08-.57-.16-.86-.24-.17-.05-.34-.1-.5-.15-.07-.02-.13-.04-.2-.06.88-2.44,2.99-4.13,4.9-5.94.19.03.38.07.54.11.14.04.27.08.38.12.61.25.75.66.03,1.36Z"/>
    <path class="cls-1" d="m45.45,28.58c-2.43,1.86-3.7,4.93-7.72,5.15-.06,0-.12.01-.18.01h0s.03-.07.04-.11c.16-.47.37-.91.61-1.31,1.14-1.9,3.11-3.14,5.4-4.12.15-.07.31-.13.46-.2.27-.1.51-.11.71-.06h0s0,0,0,0c.3.06.54.27.69.64Z"/>
    <path class="cls-1" d="m38.28,48.56c-.5.13-.96.32-1.43.53-1.38.64-2.68,1.49-4.28,1.64-.69.07-1.43,0-2.27-.27,2.23-1.6,3.63-5.08,7.98-1.9Z"/>
    <path class="cls-1" d="m34.84,37.77c-.45-.06-.82-.16-1.07-.3-.15-.08-.26-.17-.32-.28-.17-.27-.06-.62.35-1.1.63-1.01,1.32-1.94,2.55-2.3.36-.11.75-.17,1.22-.16.04,0,.07,0,.12,0h0s.01,0,.02,0c0,.04.02.06,0,.1.31,2.03-1.54,2.89-2.88,4.04Z"/>
    <path class="cls-1" d="m34.84,37.77c-1.1,1.04-2.22,2.09-3.32,3.14-.18-.3-.36-.6-.53-.9-.07-.1-.13-.21-.19-.31-.07-.13-.16-.26-.23-.39.7-1.35,1.45-2.66,3.23-3.22.09.15.19.3.28.45.09.14.18.27.26.41.17.27.34.54.51.81Z"/>
    <path class="cls-1" d="m55,48.92c-3.11-.81-6.2-1.61-9.29-2.42,3.38-.28,6.47.54,9.29,2.42Z"/>
    <path class="cls-1" d="m135.45,14.27c-.08.13-.18.28-.27.44,0,0,0,0,0,0-.02,0-.02.02-.03.03h0v-.02c-1.22-2.11-3.75-2.21-5.84-2.95.14-.08.29-.18.44-.28.19-.12.36-.26.54-.4,1.49.31,2.64.56,3.49.77,2.51.64,2.54,1.04,1.69,2.39Z"/>
    <path class="cls-1" d="m45.45,28.58c-.33-.13-.65-.27-.98-.4-.14-.06-.28-.12-.42-.18.08-.15.16-.29.25-.42.68-1.1,1.65-1.86,3.06-2.06.01,0,.01-.01.02-.01.36-.06.76-.07,1.2-.04.05,0,.11,0,.16,0v.06h-.02s0,.03,0,.04c-.25,1.64-1.37,2.61-3.27,3Z"/>
    <path class="cls-1" d="m26.55,100.42c-.57.07-1.14.15-1.71.23-1.61-3.25-2.54-6.62-3.02-10.08.23-.2.46-.32.67-.34.04,0,.09,0,.13,0,.31.02.59.24.83.68,1.04,3.18,2.08,6.35,3.11,9.52Z"/>
    <path class="cls-1" d="m22.48,87.11c-.15.09-.3.14-.43.15-.13.02-.22,0-.31-.03h0c-.21-.07-.38-.23-.54-.47-.45-.09-.87-.27-1.24-.54v-.03c.18-1.01.35-2.02.52-3.02-.13-.36-.15-.64-.1-.83.07-.26.28-.39.59-.4.28,0,.64.06,1.06.19.14,1.65.3,3.31.45,4.96Z"/>
    <path class="cls-1" d="m23.44,90.9c-.24-.05-.5-.1-.74-.15-.04-.01-.07-.02-.1-.02-.26-.06-.53-.11-.79-.16-.68-1.25-1.35-2.51-.62-3.8.11.04.22.06.34.09.14.04.28.09.43.12.17.05.35.1.52.14,1.46,1.14,1.12,2.47.96,3.78Z"/>
    <path class="cls-1" d="m22.04,82.15c-.32.21-.63.42-.94.62-.19.13-.39.26-.59.39t-.02.01c-.7-1.21-.93-2.37-.72-3.52h0c.11-.6.33-1.18.67-1.76,2.46,1.05,1.48,2.76,1.61,4.26Z"/>
    <path class="cls-1" d="m20.73,76.91c-2.11-1.1-.89-2.41-.74-3.65.22-.23.43-.45.65-.69h0c.23-.26.48-.5.71-.76h0c.19-.2.38-.41.57-.6.19,2.03-.12,3.94-1.19,5.7Z"/>
    <path class="cls-1" d="m21.8,66.67s0,.02,0,.02c-.29.59-.64,1.15-1.08,1.7v.02c-.24.3-.51.59-.78.88.73-2.91,1.46-5.82,2.19-8.73l.09-.35s.03.09.04.14c.04.16.08.31.12.46.1.41.17.81.21,1.19h0c.06.46.07.9.06,1.33,0,0,0,.02,0,.03,0,0,0,0,0,0-.03,1.16-.31,2.26-.83,3.3Z"/>
  </g>
  <g>
    <path class="cls-2" d="m443.8,406.88h.21v-.56l-.21.56Z"/>
    <path class="cls-2" d="m599.12,229.49l-.04-.11-.07-.18c-.04.1-.08.2-.11.31-2.91,1.98-5.81,3.95-8.72,5.92l21.09,57.07h-.15l3.83,10.28h.03l38.67,104.1h11.11l-65.64-177.39Zm-42.16-113.93h-220.34v10.29h97.11v281.03h10.08l.21-.56,30.72-82.71h-.29l11.8-31.11h-.06l2.84-7.69,2.34-6.33,56.54-153.04h1.64l38.95,105.44c2.94-2.05,5.89-4.09,8.88-6.09l-40.42-109.23Zm-77.6,165.24l-2.16,5.83-33.18,89.66V125.85h92.68l-57.34,154.95Z"/>
  </g>
</svg>